<svg width="135" height="132" viewBox="0 0 135 132" fill="none" xmlns="http://www.w3.org/2000/svg">
<g clip-path="url(#clip0_27_402)">
<path d="M134.967 57.8814C134.967 47.2811 127 38.4599 116.594 36.8027C113.327 22.9273 100.582 12.8327 85.6545 12.8327C72.3041 12.8327 60.4049 21.0389 55.8557 33.0776C40.3383 36.5326 28.0059 48.5531 24.7489 64.0476C11.0119 65.7645 0.361084 77.2302 0.361084 91.074C0.361084 106.099 12.9064 118.323 28.3267 118.323H101.764C117.184 118.323 129.73 106.099 129.73 91.074C129.73 85.4351 127.962 80.1916 124.939 75.8399C131.103 71.9872 134.967 65.3148 134.967 57.8814ZM85.6545 20.9454C97.5234 20.9454 107.522 29.5908 108.912 41.0554L109.346 44.6358H113.046C120.542 44.6358 126.641 50.5778 126.641 57.8811C126.641 62.9913 123.699 67.5236 119.133 69.7343C115.241 66.7205 110.51 64.6934 105.341 64.047C101.495 45.7518 84.9967 32.3002 65.5418 32.0741C69.6955 25.3159 77.2867 20.9454 85.6545 20.9454ZM101.764 110.21H28.3267C17.4974 110.21 8.68724 101.626 8.68724 91.074C8.68724 80.5223 17.498 71.938 28.3281 71.938H32.0282L32.4623 68.3576C34.4101 52.295 48.4174 40.1819 65.045 40.1819C81.6727 40.1819 95.6803 52.2947 97.6278 68.3576L98.0619 71.938H101.762C112.592 71.938 121.403 80.5223 121.403 91.074C121.403 101.626 112.593 110.21 101.764 110.21Z" fill="#F39C12"/>
</g>
<defs>
<clipPath id="clip0_27_402">
<rect width="134.606" height="131.155" fill="white" transform="translate(0.361084)"/>
</clipPath>
</defs>
</svg>
