<svg width="64" height="64" viewBox="0 0 64 64" fill="none" xmlns="http://www.w3.org/2000/svg">
<circle cx="32" cy="32" r="31" stroke="#D32F2F" stroke-width="2"/>
<path d="M44 39.3131C44 39.8519 43.8114 40.3098 43.4343 40.6869L40.6869 43.4343C40.3098 43.8114 39.8519 44 39.3131 44C38.7744 44 38.3165 43.8114 37.9394 43.4343L32 37.4949L26.0606 43.4343C25.6835 43.8114 25.2256 44 24.6869 44C24.1481 44 23.6902 43.8114 23.3131 43.4343L20.5657 40.6869C20.1886 40.3098 20 39.8519 20 39.3131C20 38.7744 20.1886 38.3165 20.5657 37.9394L26.5051 32L20.5657 26.0606C20.1886 25.6835 20 25.2256 20 24.6869C20 24.1481 20.1886 23.6902 20.5657 23.3131L23.3131 20.5657C23.6902 20.1886 24.1481 20 24.6869 20C25.2256 20 25.6835 20.1886 26.0606 20.5657L32 26.5051L37.9394 20.5657C38.3165 20.1886 38.7744 20 39.3131 20C39.8519 20 40.3098 20.1886 40.6869 20.5657L43.4343 23.3131C43.8114 23.6902 44 24.1481 44 24.6869C44 25.2256 43.8114 25.6835 43.4343 26.0606L37.4949 32L43.4343 37.9394C43.8114 38.3165 44 38.7744 44 39.3131Z" fill="#D32F2F"/>
</svg>
