<svg width="64" height="64" viewBox="0 0 64 64" fill="none" xmlns="http://www.w3.org/2000/svg">
<circle cx="32" cy="32" r="31" stroke="#F39C12" stroke-width="2"/>
<path d="M24.5 18.5C25.6935 18.5 26.8381 18.9741 27.682 19.818C28.5259 20.6619 29 21.8065 29 23V41C29 42.1935 28.5259 43.3381 27.682 44.182C26.8381 45.0259 25.6935 45.5 24.5 45.5C23.3065 45.5 22.1619 45.0259 21.318 44.182C20.4741 43.3381 20 42.1935 20 41V23C20 21.8065 20.4741 20.6619 21.318 19.818C22.1619 18.9741 23.3065 18.5 24.5 18.5ZM39.5 18.5C40.6935 18.5 41.8381 18.9741 42.682 19.818C43.5259 20.6619 44 21.8065 44 23V41C44 42.1935 43.5259 43.3381 42.682 44.182C41.8381 45.0259 40.6935 45.5 39.5 45.5C38.3065 45.5 37.1619 45.0259 36.318 44.182C35.4741 43.3381 35 42.1935 35 41V23C35 21.8065 35.4741 20.6619 36.318 19.818C37.1619 18.9741 38.3065 18.5 39.5 18.5Z" fill="#F39C12"/>
</svg>
